
<svg width="896px" height="705px" viewBox="0 0 896 705" version="1.1" xmlns="http://www.w3.org/2000/svg" xmlns:xlink="http://www.w3.org/1999/xlink">
  <g id="Page-1" stroke="none" stroke-width="1" fill="none" fill-rule="evenodd">
    <g id="AMgradeLogo" transform="translate(-6.000000, 49.000000)" fill="#FFFFFF">
      <g id="CompanyName" transform="translate(0.000000, 375.000000)">
        <path d="M100.761441,242.20432 C97.1484806,228.9568 93.3348006,215.70928 89.5211205,202.46176 L43.3555203,202.46176 C39.5418402,215.30784 35.9288802,228.15392 32.3159202,241 L6.82448004,241 C19.8712801,195.03512 33.9216802,148.668799 49.3771203,102.904639 L84.5031205,102.904639 C99.7578406,148.668799 114.008961,194.03152 127.256481,239.79568 L100.761441,242.20432 Z M65.6354404,127.191759 C60.0152804,145.457279 54.5958403,163.7228 49.1764003,182.18904 L83.7002405,182.18904 C78.2808005,163.92352 72.8613604,145.457279 67.2412004,127.191759 L65.6354404,127.191759 Z M255.516562,102.904639 L291.846882,102.904639 L291.846882,241 L265.351842,241 L266.355442,138.833519 L264.548962,138.833519 L232.433761,230.56256 L212.161041,230.76328 L179.845121,138.833519 L178.239361,138.833519 L179.242961,241 L154.955841,241 L154.955841,102.904639 L193.494081,102.904639 L223.602081,192.02432 L225.207841,192.02432 L255.516562,102.904639 Z M340.621842,280.74256 L337.611042,256.054 C385.783842,251.23672 391.404002,249.63096 392.206882,222.53376 C385.181682,227.15032 375.948562,230.76328 364.908962,230.76328 C341.826162,230.76328 323.560642,212.8992 323.560642,184.7984 C323.560642,149.873119 351.260002,126.991039 384.980962,126.991039 C394.615522,126.991039 405.253682,128.396079 416.694723,131.808319 C417.296883,151.880319 417.698323,176.7696 417.698323,206.67688 C417.698323,247.22232 403.447202,276.92888 340.621842,280.74256 Z M374.944962,209.48696 C380.364402,209.48696 386.386002,208.48336 392.206882,206.27544 L392.206882,152.281759 C385.583122,150.475279 379.160082,149.471679 373.138482,149.471679 C357.683042,149.471679 348.650642,158.303359 348.650642,176.7696 C348.650642,199.04952 360.693842,209.48696 374.944962,209.48696 Z M524.481363,241 L449.612803,241 L449.612803,220.72728 L473.097043,220.72728 C472.695603,192.02432 472.494883,169.34296 471.892723,150.675999 L448.609203,149.070239 L450.817123,129.600399 L493.369763,129.600399 L495.979123,148.668799 C504.810803,137.227759 518.660483,128.195359 536.725283,125.184559 L538.531763,152.482479 C523.076323,153.486079 509.427363,156.898319 497.183443,162.11704 C497.584883,178.17464 497.986323,197.44376 498.387763,220.72728 L526.890003,220.72728 L524.481363,241 Z M600.554244,223.13592 C607.378724,223.13592 616.009684,220.32584 623.837764,215.10712 C623.436324,208.8848 623.235604,202.26104 623.034884,195.03512 C589.313924,192.02432 584.496644,198.44736 584.496644,208.68408 C584.496644,217.31504 590.317524,223.13592 600.554244,223.13592 Z M627.250004,241.80288 L625.042084,229.15752 C617.414724,237.18632 606.776564,243.81008 591.722564,243.81008 C573.055603,243.81008 559.607363,232.9712 559.607363,214.9064 C559.607363,193.63008 578.274324,174.16024 622.633444,175.36456 C620.826964,155.493279 608.583044,150.876719 565.026803,149.672399 L567.636163,127.191759 C631.665844,127.191759 647.924164,142.446479 647.924164,186.00272 C647.924164,207.07832 648.927764,225.14312 650.132084,240.39784 L627.250004,241.80288 Z M728.613604,222.9352 C734.635204,222.9352 740.857525,220.928 746.879125,216.9136 C746.477685,199.25024 746.076245,178.7768 746.076245,152.281759 C739.452484,150.475279 733.430884,149.471679 728.212164,149.471679 C710.749524,149.471679 701.315684,160.51128 701.315684,183.59408 C701.315684,210.28984 713.760324,222.9352 728.613604,222.9352 Z M750.291365,241.60216 L748.685605,231.76688 C741.258965,238.59136 731.222964,244.21152 718.577604,244.21152 C695.093364,244.21152 676.225684,223.53736 676.225684,191.62288 C676.225684,150.073839 706.735124,126.388879 746.076245,126.388879 L746.076245,86.2448791 L771.366965,83.836239 L771.366965,129.600399 C771.366965,181.98832 771.567685,214.9064 773.374165,240.19712 L750.291365,241.60216 Z M888.788165,243.81008 C820.342645,244.81368 802.077125,222.9352 802.077125,186.60488 C802.077125,153.285359 826.564965,126.388879 854.465045,126.388879 C884.171605,126.388879 898.021285,151.478879 894.207605,191.02072 L827.970005,193.02792 C831.984405,214.9064 849.647765,220.32584 891.598245,221.32944 L888.788165,243.81008 Z M849.246325,149.270959 C835.597365,149.270959 828.371445,155.091839 827.367845,175.766 L869.519045,174.36096 C868.515445,158.504079 863.096005,149.270959 849.246325,149.270959 Z" id="text"></path>
      </g>
      <g id="CompanySymbol" transform="translate(60.000000, 0.000000)">
        <polyline id="m-path" stroke="#FFFFFF" stroke-width="96.5517241" fill-opacity="0" stroke-linejoin="round" points="0 344.413793 165.517241 0 372.413793 344.413793 579.310345 0 689.655172 165.318621 800 344.413793"></polyline>
        <ellipse id="dot" cx="179.310345" cy="330.666667" rx="41.3793103" ry="41.3333333"></ellipse>
      </g>
    </g>
  </g>
</svg>